#!OML:ASF I:\Actors\actors\Patient Classification 1\Patient 1\Session 1\Subject1.ASF
:FULLY-SPECIFIED
:DEGREES
1118
root 0.46403 17.444 9.29586 9.89104 -3.20759 -9.28208
lowerback -1.65796 1.86719 5.84431
upperback -9.36971 2.87203 2.24925
thorax -8.80837 1.06859 -1.04095
lowerneck -7.72786 0.888774 2.01835
upperneck 18.4857 0.568961 1.90682
head 6.91757 0.577124 0.32485
rclavicle 7.50412e-015 6.75868e-015
rhumerus -54.911 -31.1542 -56.6594
rradius 18.0674
rwrist 54.9185
rhand 6.14352 -29.0103
rfingers 7.12502
rthumb 31.4601 -56.323
lclavicle 7.50412e-015 6.75868e-015
lhumerus -49.8964 26.113 67.5619
lradius 16.0044
lwrist -35.3127
lhand -18.0482 -9.63806
lfingers 7.12502
lthumb 8.2238 20.1819
rfemur -4.61368 23.2833 26.0767
rtibia 2.6181
rfoot -10.9051 -21.5696
rtoes 2.00398
lfemur 7.43569 -48.7284 -13.2373
ltibia -4.65874
lfoot -33.1809 56.5961
ltoes 19.2521
1119
root 0.468035 17.4438 9.29186 9.85542 -3.16686 -9.26441
lowerback -1.67337 1.88522 5.82871
upperback -9.30541 2.89113 2.252
thorax -8.72686 1.08258 -1.02947
lowerneck -7.862 0.853972 2.00575
upperneck 18.6055 0.514065 1.91971
head 6.97996 0.553123 0.327889
rclavicle 2.19657e-014 -6.89783e-014
rhumerus -54.8719 -31.2527 -56.6812
rradius 18.0729
rwrist 54.8691
rhand 6.16505 -29.0571
rfingers 7.12502
rthumb 31.4806 -56.3658
lclavicle 2.19657e-014 -6.89783e-014
lhumerus -49.8323 26.0798 67.5951
lradius 16.0299
lwrist -35.4686
lhand -17.9612 -9.48546
lfingers 7.12502
lthumb 8.30776 20.3312
rfemur -4.60524 23.2584 26.0532
rtibia 2.65708
rfoot -10.9544 -21.5685
rtoes 2.14194
lfemur 7.44808 -48.7339 -13.2879
ltibia -4.64732
lfoot -33.0262 56.6105
ltoes 19.0226
1120
root 0.471432 17.4431 9.28654 9.82052 -3.12988 -9.32287
lowerback -1.62526 1.89748 5.87947
upperback -9.26886 2.91363 2.28163
thorax -8.71319 1.09205 -1.02876
lowerneck -7.90725 0.8276 2.09478
upperneck 18.6479 0.481452 1.81564
head 7.0024 0.535452 0.277194
rclavicle 9.44227e-016 4.29375e-014
rhumerus -54.9109 -31.3983 -56.6319
rradius 18.1024
rwrist 54.9091
rhand 6.23794 -29.1052
rfingers 7.12502
rthumb 31.55 -56.4003
lclavicle 9.44227e-016 4.29375e-014
lhumerus -49.8373 26.0618 67.5751
lradius 16.0673
lwrist -35.6124
lhand -17.9095 -9.23687
lfingers 7.12502
lthumb 8.35763 20.5778
rfemur -4.60583 23.2428 26.1237
rtibia 2.71097
rfoot -10.9611 -21.5784
rtoes 2.1791
lfemur 7.45977 -48.6884 -13.2236
ltibia -4.68487
lfoot -32.6774 56.6512
ltoes 18.646
1121
root 0.474652 17.443 9.28223 9.79584 -3.09111 -9.38439
lowerback -1.56196 1.90899 5.95806
upperback -9.25594 2.93762 2.29421
thorax -8.73293 1.09806 -1.06223
lowerneck -7.93605 0.828637 2.09848
upperneck 18.6869 0.46752 1.88567
head 7.02011 0.535739 0.298377
rclavicle 1.2275e-014 5.34731e-014
rhumerus -54.9441 -31.44 -56.6787
rradius 18.1569
rwrist 54.8323
rhand 6.3592 -29.0737
rfingers 7.12502
rthumb 31.6655 -56.3461
lclavicle 1.2275e-014 5.34731e-014
lhumerus -49.811 25.9129 67.622
lradius 16.0636
lwrist -35.609
lhand -18.0296 -9.28691
lfingers 7.12502
lthumb 8.24176 20.5323
rfemur -4.60378 23.2448 26.1966
rtibia 2.74838
rfoot -10.9775 -21.6231
rtoes 2.20253
lfemur 7.4896 -48.6953 -13.1603
ltibia -4.74877
lfoot -32.2859 56.7508
ltoes 18.1938
1122
root 0.47832 17.4439 9.27941 9.78726 -3.08788 -9.34021
lowerback -1.55601 1.93263 5.93254
upperback -9.23494 2.96635 2.27126
thorax -8.71067 1.1141 -1.07402
lowerneck -7.94375 0.843809 2.09149
upperneck 18.695 0.470512 1.98512
head 7.024 0.545507 0.332018
rclavicle 1.0635e-014 -3.10104e-014
rhumerus -54.9035 -31.3914 -56.8482
rradius 18.1835
rwrist 54.6268
rhand 6.38612 -28.9965
rfingers 7.12502
rthumb 31.6912 -56.2639
lclavicle 1.0635e-014 -3.10104e-014
lhumerus -49.7439 25.7729 67.6502
lradius 16.0141
lwrist -35.6171
lhand -18.1727 -9.45263
lfingers 7.12502
lthumb 8.10364 20.372
rfemur -4.60656 23.3247 26.1348
rtibia 2.76378
rfoot -11.0264 -21.7154
rtoes 2.32912
lfemur 7.51356 -48.731 -13.2327
ltibia -4.78362
lfoot -32.0381 56.8393
ltoes 17.9295
1123
root 0.482887 17.4448 9.2769 9.7848 -3.09965 -9.25303
lowerback -1.57717 1.95213 5.85127
upperback -9.20501 2.98502 2.25266
thorax -8.66513 1.13044 -1.04882
lowerneck -7.94054 0.866885 2.11435
upperneck 18.6588 0.496964 2.00056
head 7.01186 0.560742 0.335224
rclavicle 4.47266e-015 -9.74045e-015
rhumerus -54.8598 -31.392 -56.9499
rradius 18.1534
rwrist 54.5793
rhand 6.266 -28.9385
rfingers 7.12502
rthumb 31.5768 -56.2284
lclavicle 4.47266e-015 -9.74045e-015
lhumerus -49.7504 25.9205 67.4158
lradius 15.9165
lwrist -35.9539
lhand -18.1463 -9.42218
lfingers 7.12502
lthumb 8.12918 20.4015
rfemur -4.60454 23.4325 26.021
rtibia 2.75324
rfoot -11.0165 -21.8283
rtoes 2.24664
lfemur 7.48548 -48.7084 -13.3321
ltibia -4.77731
lfoot -31.8243 56.8506
ltoes 17.8023
